<?xml version="1.0" encoding="UTF-8"?>
<!-- generated-at: 2026-09-03T23:01:59.988Z -->
<svg xmlns="http://www.w3.org/2000/svg" width="520" height="304" viewBox="0 0 520 304" role="img" aria-label="Top languages for sandiirawan12">
  <title>Top Languages</title>
  <rect width="520" height="304" rx="8" fill="#0d1117" stroke="#30363d"/>
  <g font-family="-apple-system, BlinkMacSystemFont, Segoe UI, Helvetica, Arial, sans-serif">
    <text x="24" y="30" fill="#e6edf3" font-size="16" font-weight="700">Top Languages</text>
    <text x="496" y="30" fill="#8b949e" font-size="12" text-anchor="end">@sandiirawan12</text>
    <line x1="24" y1="52" x2="496" y2="52" stroke="#30363d"/>
    
    <text x="24" y="84" fill="#e6edf3" font-size="13">TypeScript</text>
    <rect x="144" y="74" width="300" height="12" rx="4" fill="#21262d"/>
    <rect x="144" y="74" width="150.3" height="12" rx="4" fill="#3178c6"/>
    <text x="496" y="84" fill="#8b949e" font-size="12" text-anchor="end">50.1%</text>
    <text x="24" y="124" fill="#e6edf3" font-size="13">PHP</text>
    <rect x="144" y="114" width="300" height="12" rx="4" fill="#21262d"/>
    <rect x="144" y="114" width="68.1" height="12" rx="4" fill="#4F5D95"/>
    <text x="496" y="124" fill="#8b949e" font-size="12" text-anchor="end">22.7%</text>
    <text x="24" y="164" fill="#e6edf3" font-size="13">JavaScript</text>
    <rect x="144" y="154" width="300" height="12" rx="4" fill="#21262d"/>
    <rect x="144" y="154" width="52.5" height="12" rx="4" fill="#f1e05a"/>
    <text x="496" y="164" fill="#8b949e" font-size="12" text-anchor="end">17.5%</text>
    <text x="24" y="204" fill="#e6edf3" font-size="13">CSS</text>
    <rect x="144" y="194" width="300" height="12" rx="4" fill="#21262d"/>
    <rect x="144" y="194" width="22.2" height="12" rx="4" fill="#663399"/>
    <text x="496" y="204" fill="#8b949e" font-size="12" text-anchor="end">7.4%</text>
    <text x="24" y="244" fill="#e6edf3" font-size="13">Others</text>
    <rect x="144" y="234" width="300" height="12" rx="4" fill="#21262d"/>
    <rect x="144" y="234" width="6.9" height="12" rx="4" fill="#8b949e"/>
    <text x="496" y="244" fill="#8b949e" font-size="12" text-anchor="end">2.3%</text>
    <text x="496" y="298" fill="#8b949e" font-size="10" text-anchor="end" opacity="0.75">Updated Sep 3, 23:01 UTC</text>
  </g>
</svg>
